<svg xmlns="http://www.w3.org/2000/svg" viewBox="0 0 32 32" stroke="#000" fill="none" stroke-linejoin="round">
<path d="M16 18.9037C17.6037 18.9037 18.9037 17.6037 18.9037 16C18.9037 14.3963 17.6037 13.0963 16 13.0963C14.3963 13.0963 13.0963 14.3963 13.0963 16C13.0963 17.6037 14.3963 18.9037 16 18.9037Z M21.5111 12.5037L22.5185 11.2L20.7407 9.48148L19.437 10.4889L17.4222 9.65926L17.2444 8H14.7556L14.5185 9.65926L12.5037 10.4889L11.2 9.48148L9.48148 11.2L10.4889 12.5037L9.65926 14.5185L8 14.7556V17.2444L9.65926 17.4222L10.4889 19.437L9.48148 20.8L11.2 22.5185L12.563 21.5111L14.5778 22.3407L14.7556 24H17.2444L17.4815 22.3407L19.437 21.5111L20.8 22.5185L22.5185 20.7407L21.5111 19.437L22.3407 17.4222L24 17.2444V14.7556L22.3407 14.5185L21.5111 12.5037Z"/>
</svg>
