<svg xmlns="http://www.w3.org/2000/svg" viewBox="0 0 32 32" stroke="#000" fill="none" >
<path d="M18.1502 14.1246V9.03007C18.1502 8.46325 17.6917 8 17.1319 8H10.0203C9.7499 8.00068 9.49078 8.10964 9.29958 8.30306C9.10838 8.49647 9.00067 8.7586 9 9.03213V16.2157C9 16.7814 9.45794 17.2447 10.0172 17.2447H12.8959M17.1691 18.7823H18.767M18.767 18.7823V16.0528C18.767 15.8802 18.9051 15.7405 19.0757 15.7405H20.5218M18.767 18.7823V21.4345C18.767 21.5172 18.7995 21.5965 18.8573 21.655C18.9151 21.7134 18.9935 21.7463 19.0752 21.7463H20.5091M22.6281 14.4868H20.8937C20.7952 14.4871 20.7007 14.5268 20.6311 14.5973C20.5614 14.6678 20.5221 14.7633 20.5218 14.863V16.6176C20.5218 16.8242 20.6889 16.9937 20.8937 16.9937H22.6281C22.8324 16.9937 23 16.8247 23 16.6176V14.863C22.9996 14.7634 22.9603 14.6679 22.8906 14.5975C22.821 14.527 22.7266 14.4872 22.6281 14.4868ZM16.7972 17.4895H15.0628C14.9642 17.4897 14.8698 17.5294 14.8001 17.5999C14.7305 17.6704 14.6912 17.7659 14.6909 17.8656V19.6202C14.6909 19.8268 14.858 19.9964 15.0628 19.9964H16.7972C17.0015 19.9964 17.1691 19.8273 17.1691 19.6202V17.8651C17.1687 17.7655 17.1294 17.6701 17.0597 17.5997C16.99 17.5294 16.8957 17.4897 16.7972 17.4895ZM22.6154 20.4931H20.881C20.7824 20.4934 20.688 20.5331 20.6183 20.6036C20.5486 20.6741 20.5094 20.7696 20.5091 20.8693V22.6238C20.5091 22.8305 20.6762 23 20.881 23H22.6154C22.8197 23 22.9873 22.831 22.9873 22.6238V20.8693C22.9869 20.7696 22.9476 20.6742 22.8779 20.6037C22.8083 20.5333 22.7139 20.4935 22.6154 20.4931Z" />
<path d="M13.5 10V15" />
<path d="M11 12.5H16" />
</svg>
