<svg viewBox="0 0 32 32" fill="none" xmlns="http://www.w3.org/2000/svg">
<path d="M14.9801 17.8399C13.8601 16.7199 14.0201 14.7199 15.3001 13.4399L20.02 8.71987C21.3 7.43986 23.3 7.27986 24.42 8.39986L25.7 9.67987C26.82 10.7999 26.66 12.7999 25.38 14.0799L20.66 18.7999C19.7 19.7599 18.4201 20.0799 17.3801 19.7599" stroke-miterlimit="10" stroke-linejoin="round"/>
<path d="M17.22 14.1596C18.34 15.2797 18.18 17.2797 16.9 18.5597L12.18 23.2797C10.9 24.5597 8.90001 24.7197 7.78001 23.5997L6.50002 22.3197C5.38002 21.1997 5.54002 19.1997 6.82002 17.9197L11.54 13.1996C12.5 12.2396 13.78 11.9196 14.82 12.2396" stroke-miterlimit="10" stroke-linejoin="round"/>
</svg>
