<svg xmlns="http://www.w3.org/2000/svg" width="316" height="61" fill="none"><rect width="32" height="32" x="34" y="21" fill="#FFD800" rx="1"/><path fill="#000" d="m34 37-9 4.5v-9l9 4.5ZM75 37l-9 4.5v-9l9 4.5Z"/><path fill="#fff" d="M46 34h7v7h-7z"/><path fill="#fff" stroke="#3E3A39" d="M46.5 34.5h6v6h-6z"/><path stroke="#201E1E" d="M44.5 34v8.5H53M44.5 29v2"/><path stroke="#201E1E" d="M42 32.5h12.5V45M56 42.5h2M44.5 42.5l12-12"/><rect width="32" height="32" x="140" y="21" fill="#C8E632" rx="1"/><path fill="#000" d="m140 37-9 4.5v-9l9 4.5Z"/><path fill="#1469AF" d="M172 32.5h9v9h-9z"/><rect width="32" height="32" x="246" y="21" fill="#2B94B1" rx="1"/><path fill="#000" d="m246 37-9 4.5v-9l9 4.5Z"/><path fill="#fff" d="M254 29h16v16h-16z"/><path fill="#3E3A39" d="M255 29v15h15v1h-16V29h1Z"/><path stroke="#3E3A39" d="M256.5 44v-6M258.5 44V34M260.5 44v-4M262.5 44v-8M264.5 44V33M266.5 44v-2M268.5 44v-3"/><path fill="#3E3A39" d="M157 29h2v3h5v6h-2v-4h-7v4h4v7h-2v-5h-7v5h-2v-7h5v-6h4v-3Z"/><rect width="64" height="9" x="18" y="1" fill="#C0C4C6" fill-opacity=".5" rx="4.5"/><rect width="54" height="9" x="129" y="1" fill="#C0C4C6" fill-opacity=".5" rx="4.5"/><rect width="74" height="9" x="225" y="1" fill="#C0C4C6" fill-opacity=".5" rx="4.5"/></svg>